<!-- <svg width="823" height="719" viewBox="0 0 823 719" fill="none" xmlns="http://www.w3.org/2000/svg">
<path fill-rule="evenodd" clip-rule="evenodd" d="M462.128 288.169C462.128 314.664 440.701 336.077 414.19 336.077C387.679 336.077 366.252 314.664 366.252 288.169C366.252 261.675 387.679 240.262 414.19 240.262H462.128V288.169ZM486.096 288.169C486.096 261.675 507.523 240.262 534.034 240.262C560.545 240.262 581.972 261.675 581.972 288.169V407.937C581.972 434.432 560.545 455.845 534.034 455.845C507.523 455.845 486.096 434.432 486.096 407.937V288.169Z" fill="#E01E5A"/>
<path fill-rule="evenodd" clip-rule="evenodd" d="M534.035 95.8144C507.523 95.8144 486.096 74.4013 486.096 47.9072C486.096 21.4131 507.523 0 534.035 0C560.546 0 581.973 21.4131 581.973 47.9072V95.8144H534.035ZM534.035 120.132C560.546 120.132 581.973 141.545 581.973 168.039C581.973 194.533 560.546 215.946 534.035 215.946H413.826C387.315 215.946 365.888 194.533 365.888 168.039C365.888 141.545 387.315 120.132 413.826 120.132H534.035Z" fill="#36C5F0"/>
<path fill-rule="evenodd" clip-rule="evenodd" d="M726.149 168.038C726.149 141.544 747.576 120.131 774.087 120.131C800.598 120.131 822.025 141.544 822.025 168.038C822.025 194.532 800.598 215.945 774.087 215.945H726.149V168.038ZM702.179 168.038C702.179 194.532 680.752 215.945 654.241 215.945C627.73 215.945 606.303 194.532 606.303 168.038V47.9072C606.303 21.4131 627.73 0 654.241 0C680.752 0 702.179 21.4131 702.179 47.9072V168.038Z" fill="#2EB67D"/>
<path fill-rule="evenodd" clip-rule="evenodd" d="M653.939 359.767C680.45 359.767 701.877 381.18 701.877 407.674C701.877 434.168 680.45 455.581 653.939 455.581C627.427 455.581 606 434.168 606 407.674V359.767H653.939ZM653.939 335.814C627.427 335.814 606 314.401 606 287.907C606 261.413 627.427 240 653.939 240H774.147C800.658 240 822.085 261.413 822.085 287.907C822.085 314.401 800.658 335.814 774.147 335.814H653.939Z" fill="#ECB22E"/>
<circle cx="382" cy="485" r="234" fill="white"/>
<g style="mix-blend-mode:multiply">
<circle cx="381.721" cy="485.981" r="213.279" fill="white"/>
<circle cx="381.721" cy="485.981" r="213.279" fill="#17EBA0" fill-opacity="0.24"/>
</g>
<mask id="mask0" mask-type="alpha" maskUnits="userSpaceOnUse" x="169" y="105" width="426" height="593">
<path d="M594.89 484.705C594.89 602.236 499.551 697.513 381.945 697.513C264.339 697.513 169 602.236 169 484.705C169 428.029 169 105 169 105H594.89C594.89 105 594.89 367.175 594.89 484.705Z" fill="#C4C4C4"/>
</mask>
<g mask="url(#mask0)">
<path d="M511.023 180.221C525.717 192.05 534.096 211.849 520.994 227.935C507.891 244.02 478.169 253.667 461.88 240.553C445.59 227.439 448.902 196.531 462.005 180.445C475.107 164.359 496.329 168.391 511.023 180.221Z" fill="#885BDF"/>
<path d="M252.299 229.236C239.173 213.1 247.483 193.307 262.119 181.507C276.756 169.708 297.931 165.731 311.056 181.867C315.91 187.835 319.433 195.828 321.125 204.193C372.343 187.425 469.339 194.316 482.932 224.866C492.59 246.573 498.781 316.039 502.657 385.067C504.252 413.466 505.454 462.214 506.345 487.108C508.027 534.078 513.145 740.184 513.145 740.184H260.849C260.849 740.184 266.144 534.078 267.821 487.108C268.709 462.214 269.909 413.466 271.501 385.067C274.461 332.28 278.774 279.236 284.959 247.491C272.394 245.412 259.707 238.344 252.299 229.236Z" fill="#9060EB"/>
<path d="M476.72 594.265C473.172 544.247 434.192 521.577 387.143 521.577C340.223 521.577 302.085 544.539 298.355 594.265L292.768 742.345H484.287L476.72 594.265Z" fill="#17EBA0"/>
<path d="M380.082 531.367C370.409 527.45 362.648 521.89 356.8 514.687C365.025 518.037 377.319 520.501 393.682 522.077C418.225 524.442 414.578 544.409 380.082 531.367Z" fill="#17EBA0"/>
<path d="M482.449 225.015C490.984 244.153 498.124 308.501 502.325 382.256C506.526 456.011 513.278 741.265 513.278 741.265H441.047C442.447 716.978 441.421 547.583 436.229 531.792C422.173 489.042 405.768 487.863 388.027 473.397C370.285 458.932 441.606 484.176 436.229 407.546C447.212 361.317 417.393 328.83 409.738 311.729C397.156 283.62 431.666 271.702 431.666 252.49C431.666 230.397 439.867 201.627 388.027 195.263C456.288 197.847 476.762 212.264 482.449 225.015Z" fill="black" fill-opacity="0.05"/>
<path d="M507.894 556.608C508.181 540.25 510.793 524.008 515.731 507.879C503.271 515.652 496.904 527.307 496.632 542.846C496.223 566.154 507.464 581.144 507.894 556.608Z" fill="#885BDF"/>
<path d="M444.344 301.436C433.007 312.717 440.568 333.181 431.142 323.802C421.716 314.422 421.701 299.23 431.108 289.869C440.515 280.509 455.782 280.524 465.208 289.903C474.634 299.283 455.68 290.155 444.344 301.436Z" fill="#7A52C7"/>
<path d="M332.15 317.025C343.487 305.744 335.926 285.279 345.352 294.659C354.778 304.038 354.793 319.23 345.386 328.591C335.979 337.952 320.712 337.937 311.286 328.557C301.86 319.178 320.814 328.305 332.15 317.025Z" fill="#976AEB"/>
<path d="M387.913 352.436C382.484 352.436 368.914 344.66 368.914 335.865C368.914 327.069 378.919 325.893 387.913 325.893C396.906 325.893 406.911 327.069 406.911 335.865C406.911 344.66 393.341 352.436 387.913 352.436ZM325.487 325.893C316.494 325.893 309.203 318.762 309.203 309.967C309.203 301.171 316.494 294.041 325.487 294.041C334.481 294.041 341.772 301.171 341.772 309.967C341.772 318.762 334.481 325.893 325.487 325.893ZM450.338 325.893C441.344 325.893 434.053 318.762 434.053 309.967C434.053 301.171 441.344 294.041 450.338 294.041C459.331 294.041 466.622 301.171 466.622 309.967C466.622 318.762 459.331 325.893 450.338 325.893Z" fill="black"/>
<path d="M381.814 336.62C378.1 336.62 375.09 335.405 375.09 333.906C375.09 332.407 378.1 331.192 381.814 331.192C385.527 331.192 388.537 332.407 388.537 333.906C388.537 335.405 385.527 336.62 381.814 336.62ZM316.468 305.408C316.468 303.193 318.302 301.397 320.563 301.397C322.825 301.397 324.658 303.193 324.658 305.408C324.658 307.623 322.825 309.418 320.563 309.418C318.302 309.418 316.468 307.623 316.468 305.408ZM440.186 305.408C440.186 303.193 442.02 301.397 444.282 301.397C446.543 301.397 448.377 303.193 448.377 305.408C448.377 307.623 446.543 309.418 444.282 309.418C442.02 309.418 440.186 307.623 440.186 305.408Z" fill="white" fill-opacity="0.3"/>
<path d="M300.541 261.325L297.441 260.637L306.669 258.447C311.548 257.071 319.176 255.021 327.671 253.111C330.274 252.525 332.803 252.004 335.201 251.542L333.723 249.991H343.309L339.305 247.44C347.379 247.44 352.025 247.44 353.243 247.44C354.573 247.44 355.067 248.084 355.213 248.95C355.266 249.059 355.293 249.185 355.286 249.323L355.264 249.755C355.263 249.833 355.26 249.912 355.256 249.991C355.255 250.017 355.252 250.044 355.248 250.07L354.297 268.755C354.273 269.225 353.867 269.611 353.39 269.612C353.39 269.612 343.521 269.594 329.48 270.218C315.439 270.841 303.979 271.406 303.979 271.406C303.502 271.43 303.022 271.074 302.904 270.612L300.541 261.325ZM458.665 270.893L461.937 272.977C454.548 271.754 448.533 270.814 443.891 270.158C443.097 270.119 442.294 270.08 441.483 270.041C426.788 269.332 416.421 269.28 416.421 269.28C415.945 269.276 415.536 268.895 415.506 268.408L414.358 249.751C414.188 248.516 413.799 246.4 413.193 243.403L425.89 250.083C425.914 250.087 425.938 250.091 425.961 250.094L424.761 247.59L434.265 251.447C434.266 251.463 434.267 251.479 434.268 251.494C437.102 252.012 440.128 252.608 443.255 253.287C458.508 256.597 471.131 260.3 471.131 260.3C471.589 260.432 471.861 260.915 471.739 261.376L469.297 270.595C469.175 271.057 468.688 271.411 468.217 271.387C468.217 271.387 464.495 271.19 458.665 270.893ZM375.418 440.141C373.902 440.141 372.672 438.923 372.672 437.42C372.672 435.918 373.902 434.7 375.418 434.7H399.811C401.327 434.7 402.556 435.918 402.556 437.42C402.556 438.923 401.327 440.141 399.811 440.141H375.418Z" fill="#6633BC"/>
<path d="M386.156 419.486C436.631 419.486 477.549 402.501 477.549 381.169C477.549 359.837 436.631 374.716 386.156 374.716C335.68 374.716 294.762 359.837 294.762 381.169C294.762 402.501 335.68 419.486 386.156 419.486Z" fill="#8F2E2E"/>
<path d="M321.312 369.668C326.581 369.668 335.802 370.882 335.802 370.882C334.485 375.132 331.85 383.193 328.557 383.193C325.264 383.193 322.629 374.525 321.312 369.668ZM453.041 369.668C451.724 374.525 449.089 383.902 445.796 383.902C442.503 383.902 439.868 375.132 438.551 370.882C438.551 370.882 447.772 369.668 453.041 369.668Z" fill="white"/>
<path d="M389.218 379.835C421.082 379.835 446.914 386.215 446.914 398.016C446.914 414.185 421.082 417.453 389.218 417.453C357.354 417.453 331.523 417.157 331.523 398.016C331.523 386.215 357.354 379.835 389.218 379.835Z" fill="#7F2828"/>
<path d="M359.097 381.848C370.188 380.53 383.642 382.496 385.537 388.369C387.433 394.243 383.01 396.042 383.053 400.05C383.096 404.057 385.779 406.27 388.698 406.27C391.526 406.27 394.209 404.057 394.252 400.05C394.295 396.042 389.872 394.243 391.767 388.369C393.662 382.496 410.131 380.472 419.345 381.848L413.63 377.803H363.544L359.097 381.848Z" fill="#8F2E2E"/>
<path d="M422.407 416.052C422.413 415.292 418.243 412.136 405.234 409.738C396.114 408.056 391.705 411.985 389.809 411.985C387.913 411.985 383.129 408.056 374.01 409.738C361 412.136 356.032 416.095 356.032 416.052C381.355 418.454 395.535 420.005 422.407 416.052Z" fill="#AE3939"/>
<path d="M452.02 369.668C451.169 373.234 449.465 380.118 447.336 380.118C445.207 380.118 443.504 373.679 442.652 370.559C442.652 370.559 448.614 369.668 452.02 369.668ZM331.144 370.334C334.492 370.596 335.828 370.937 335.828 370.937C334.976 374.057 331.889 382.885 330.803 382.885C329.717 382.885 331.995 373.9 331.144 370.334Z" fill="black" fill-opacity="0.05"/>
</g>
<path d="M122.85 196.369C116.127 182.479 112.26 171.447 111.25 163.274C110.19 154.687 108.433 123.081 105.979 68.4573C105.765 63.6919 109.068 59.4875 113.75 58.564L120.013 57.3286C125.226 56.3005 130.293 59.675 131.351 64.8795L139.053 102.744C139.332 104.117 140.672 105.004 142.046 104.726C142.847 104.564 143.521 104.026 143.855 103.281C144.293 102.307 146.111 83.8639 149.308 47.9512C149.767 42.797 154.213 38.9248 159.385 39.1743L168.282 39.6034C173.555 39.8578 177.649 44.297 177.473 49.5696L175.733 101.747C175.694 102.901 176.413 103.946 177.506 104.324C178.524 104.676 179.635 104.144 179.997 103.13L192.344 68.5853C194.014 63.9149 198.955 61.2724 203.772 62.4745L210.352 64.1186C215.526 65.4099 218.676 70.6472 217.388 75.8173L201.539 139.455C201.282 141.068 201.094 142.511 201.023 143.531C200.862 145.87 209.876 148.548 210.711 148.445C217.676 147.591 230.866 140.974 235.672 143.822C240.414 146.632 245.272 161.704 243.059 163.857C240.847 166.009 234.166 172.079 215.121 181.302C204.234 186.574 194.67 191.06 186.429 194.762C175.61 312.851 171.98 384.015 175.539 408.253C181.442 448.465 267.499 554.179 285.831 581.653C298.052 599.969 296.537 614.413 281.288 624.983C201.699 538.23 153.649 476.2 137.139 438.894C127.476 419.001 121.763 401.898 120 387.585L128.867 401.966C125.169 363.859 123.164 295.327 122.85 196.369Z" fill="#9060EB"/>
</svg> -->

<svg width="831" height="719" viewBox="0 0 831 719" fill="none" xmlns="http://www.w3.org/2000/svg">
<path fill-rule="evenodd" clip-rule="evenodd" d="M462.128 288.169C462.128 314.664 440.701 336.077 414.19 336.077C387.679 336.077 366.252 314.664 366.252 288.169C366.252 261.675 387.679 240.262 414.19 240.262H462.128V288.169ZM486.096 288.169C486.096 261.675 507.523 240.262 534.034 240.262C560.545 240.262 581.972 261.675 581.972 288.169V407.937C581.972 434.432 560.545 455.845 534.034 455.845C507.523 455.845 486.096 434.432 486.096 407.937V288.169Z" fill="#E01E5A"/>
<path fill-rule="evenodd" clip-rule="evenodd" d="M534.035 95.8144C507.523 95.8144 486.096 74.4013 486.096 47.9072C486.096 21.4131 507.523 0 534.035 0C560.546 0 581.973 21.4131 581.973 47.9072V95.8144H534.035ZM534.035 120.132C560.546 120.132 581.973 141.545 581.973 168.039C581.973 194.533 560.546 215.946 534.035 215.946H413.826C387.315 215.946 365.888 194.533 365.888 168.039C365.888 141.545 387.315 120.132 413.826 120.132H534.035Z" fill="#36C5F0"/>
<path fill-rule="evenodd" clip-rule="evenodd" d="M726.149 168.038C726.149 141.544 747.576 120.131 774.087 120.131C800.598 120.131 822.025 141.544 822.025 168.038C822.025 194.532 800.598 215.945 774.087 215.945H726.149V168.038ZM702.179 168.038C702.179 194.532 680.752 215.945 654.241 215.945C627.73 215.945 606.303 194.532 606.303 168.038V47.9072C606.303 21.4131 627.73 0 654.241 0C680.752 0 702.179 21.4131 702.179 47.9072V168.038Z" fill="#2EB67D"/>
<path fill-rule="evenodd" clip-rule="evenodd" d="M653.939 359.767C680.45 359.767 701.877 381.18 701.877 407.674C701.877 434.168 680.45 455.581 653.939 455.581C627.427 455.581 606 434.168 606 407.674V359.767H653.939ZM653.939 335.814C627.427 335.814 606 314.401 606 287.907C606 261.413 627.427 240 653.939 240H774.147C800.658 240 822.085 261.413 822.085 287.907C822.085 314.401 800.658 335.814 774.147 335.814H653.939Z" fill="#ECB22E"/>
<circle cx="382" cy="485" r="234" fill="white"/>
<g style="mix-blend-mode:multiply">
<circle cx="381.721" cy="485.981" r="213.279" fill="white"/>
<circle cx="381.721" cy="485.981" r="213.279" fill="#17EBA0" fill-opacity="0.24"/>
</g>
<mask id="mask0" mask-type="alpha" maskUnits="userSpaceOnUse" x="169" y="105" width="426" height="593">
<path d="M594.89 484.705C594.89 602.236 499.551 697.513 381.945 697.513C264.339 697.513 169 602.236 169 484.705C169 428.029 169 105 169 105H594.89C594.89 105 594.89 367.175 594.89 484.705Z" fill="#C4C4C4"/>
</mask>
<g mask="url(#mask0)">
<path d="M511.023 180.221C525.717 192.05 534.096 211.849 520.994 227.935C507.891 244.02 478.169 253.667 461.88 240.553C445.59 227.439 448.902 196.531 462.005 180.445C475.107 164.359 496.329 168.391 511.023 180.221Z" fill="#885BDF"/>
<path d="M252.299 229.236C239.173 213.1 247.483 193.307 262.119 181.507C276.756 169.708 297.931 165.731 311.056 181.867C315.91 187.835 319.433 195.828 321.125 204.193C372.343 187.425 469.339 194.316 482.932 224.866C492.59 246.573 498.781 316.039 502.657 385.067C504.252 413.466 505.454 462.214 506.345 487.108C508.027 534.078 513.145 740.184 513.145 740.184H260.849C260.849 740.184 266.144 534.078 267.821 487.108C268.709 462.214 269.909 413.466 271.501 385.067C274.461 332.28 278.774 279.236 284.959 247.491C272.394 245.412 259.707 238.344 252.299 229.236Z" fill="#9060EB"/>
<path d="M476.72 594.265C473.172 544.247 434.192 521.577 387.143 521.577C340.223 521.577 302.085 544.539 298.355 594.265L292.768 742.345H484.287L476.72 594.265Z" fill="#17EBA0"/>
<path d="M380.082 531.367C370.409 527.45 362.648 521.89 356.8 514.687C365.025 518.037 377.319 520.501 393.682 522.077C418.225 524.442 414.578 544.409 380.082 531.367Z" fill="#17EBA0"/>
<path d="M482.449 225.015C490.984 244.153 498.124 308.501 502.325 382.256C506.526 456.011 513.278 741.265 513.278 741.265H441.047C442.447 716.978 441.421 547.583 436.229 531.792C422.173 489.042 405.768 487.863 388.027 473.397C370.285 458.932 441.606 484.176 436.229 407.546C447.212 361.317 417.393 328.83 409.738 311.729C397.156 283.62 431.666 271.702 431.666 252.49C431.666 230.397 439.867 201.627 388.027 195.263C456.288 197.847 476.762 212.264 482.449 225.015Z" fill="black" fill-opacity="0.05"/>
<path d="M507.894 556.608C508.181 540.25 510.793 524.008 515.731 507.879C503.271 515.652 496.904 527.307 496.632 542.846C496.223 566.154 507.464 581.144 507.894 556.608Z" fill="#885BDF"/>
<path d="M444.344 301.436C433.007 312.717 440.568 333.181 431.142 323.802C421.716 314.422 421.701 299.23 431.108 289.869C440.515 280.509 455.782 280.524 465.208 289.903C474.634 299.283 455.68 290.155 444.344 301.436Z" fill="#7A52C7"/>
<path d="M332.15 317.025C343.487 305.744 335.926 285.279 345.352 294.659C354.778 304.038 354.793 319.23 345.386 328.591C335.979 337.952 320.712 337.937 311.286 328.557C301.86 319.178 320.814 328.305 332.15 317.025Z" fill="#976AEB"/>
<path d="M387.913 352.436C382.484 352.436 368.914 344.66 368.914 335.865C368.914 327.069 378.919 325.893 387.913 325.893C396.906 325.893 406.911 327.069 406.911 335.865C406.911 344.66 393.341 352.436 387.913 352.436ZM325.487 325.893C316.494 325.893 309.203 318.762 309.203 309.967C309.203 301.171 316.494 294.041 325.487 294.041C334.481 294.041 341.772 301.171 341.772 309.967C341.772 318.762 334.481 325.893 325.487 325.893ZM450.338 325.893C441.344 325.893 434.053 318.762 434.053 309.967C434.053 301.171 441.344 294.041 450.338 294.041C459.331 294.041 466.622 301.171 466.622 309.967C466.622 318.762 459.331 325.893 450.338 325.893Z" fill="black"/>
<path d="M381.814 336.62C378.1 336.62 375.09 335.405 375.09 333.906C375.09 332.407 378.1 331.192 381.814 331.192C385.527 331.192 388.537 332.407 388.537 333.906C388.537 335.405 385.527 336.62 381.814 336.62ZM316.468 305.408C316.468 303.193 318.302 301.397 320.563 301.397C322.825 301.397 324.658 303.193 324.658 305.408C324.658 307.623 322.825 309.418 320.563 309.418C318.302 309.418 316.468 307.623 316.468 305.408ZM440.186 305.408C440.186 303.193 442.02 301.397 444.282 301.397C446.543 301.397 448.377 303.193 448.377 305.408C448.377 307.623 446.543 309.418 444.282 309.418C442.02 309.418 440.186 307.623 440.186 305.408Z" fill="white" fill-opacity="0.3"/>
<path d="M300.541 261.325L297.441 260.637L306.669 258.447C311.548 257.071 319.176 255.021 327.671 253.111C330.274 252.525 332.803 252.004 335.201 251.542L333.723 249.991H343.309L339.305 247.44C347.379 247.44 352.025 247.44 353.243 247.44C354.573 247.44 355.067 248.084 355.213 248.95C355.266 249.059 355.293 249.185 355.286 249.323L355.264 249.755C355.263 249.833 355.26 249.912 355.256 249.991C355.255 250.017 355.252 250.044 355.248 250.07L354.297 268.755C354.273 269.225 353.867 269.611 353.39 269.612C353.39 269.612 343.521 269.594 329.48 270.218C315.439 270.841 303.979 271.406 303.979 271.406C303.502 271.43 303.022 271.074 302.904 270.612L300.541 261.325ZM458.665 270.893L461.937 272.977C454.548 271.754 448.533 270.814 443.891 270.158C443.097 270.119 442.294 270.08 441.483 270.041C426.788 269.332 416.421 269.28 416.421 269.28C415.945 269.276 415.536 268.895 415.506 268.408L414.358 249.751C414.188 248.516 413.799 246.4 413.193 243.403L425.89 250.083C425.914 250.087 425.938 250.091 425.961 250.094L424.761 247.59L434.265 251.447C434.266 251.463 434.267 251.479 434.268 251.494C437.102 252.012 440.128 252.608 443.255 253.287C458.508 256.597 471.131 260.3 471.131 260.3C471.589 260.432 471.861 260.915 471.739 261.376L469.297 270.595C469.175 271.057 468.688 271.411 468.217 271.387C468.217 271.387 464.495 271.19 458.665 270.893ZM375.418 440.141C373.902 440.141 372.672 438.923 372.672 437.42C372.672 435.918 373.902 434.7 375.418 434.7H399.811C401.327 434.7 402.556 435.918 402.556 437.42C402.556 438.923 401.327 440.141 399.811 440.141H375.418Z" fill="#6633BC"/>
<path d="M386.156 419.486C436.631 419.486 477.549 402.501 477.549 381.169C477.549 359.837 436.631 374.716 386.156 374.716C335.68 374.716 294.762 359.837 294.762 381.169C294.762 402.501 335.68 419.486 386.156 419.486Z" fill="#8F2E2E"/>
<path d="M321.312 369.668C326.581 369.668 335.802 370.882 335.802 370.882C334.485 375.132 331.85 383.193 328.557 383.193C325.264 383.193 322.629 374.525 321.312 369.668ZM453.041 369.668C451.724 374.525 449.089 383.902 445.796 383.902C442.503 383.902 439.868 375.132 438.551 370.882C438.551 370.882 447.772 369.668 453.041 369.668Z" fill="white"/>
<path d="M389.218 379.835C421.082 379.835 446.914 386.215 446.914 398.016C446.914 414.185 421.082 417.453 389.218 417.453C357.354 417.453 331.523 417.157 331.523 398.016C331.523 386.215 357.354 379.835 389.218 379.835Z" fill="#7F2828"/>
<path d="M359.097 381.848C370.188 380.53 383.642 382.496 385.537 388.369C387.433 394.243 383.01 396.042 383.053 400.05C383.096 404.057 385.779 406.27 388.698 406.27C391.526 406.27 394.209 404.057 394.252 400.05C394.295 396.042 389.872 394.243 391.767 388.369C393.662 382.496 410.131 380.472 419.345 381.848L413.63 377.803H363.544L359.097 381.848Z" fill="#8F2E2E"/>
<path d="M422.407 416.052C422.413 415.292 418.243 412.136 405.234 409.738C396.114 408.056 391.705 411.985 389.809 411.985C387.913 411.985 383.129 408.056 374.01 409.738C361 412.136 356.032 416.095 356.032 416.052C381.355 418.454 395.535 420.005 422.407 416.052Z" fill="#AE3939"/>
<path d="M452.02 369.668C451.169 373.234 449.465 380.118 447.336 380.118C445.207 380.118 443.504 373.679 442.652 370.559C442.652 370.559 448.614 369.668 452.02 369.668ZM331.144 370.334C334.492 370.596 335.828 370.937 335.828 370.937C334.976 374.057 331.889 382.885 330.803 382.885C329.717 382.885 331.995 373.9 331.144 370.334Z" fill="black" fill-opacity="0.05"/>
</g>
<path d="M122.85 196.369C116.127 182.479 112.26 171.447 111.25 163.274C110.19 154.687 108.433 123.081 105.979 68.4573C105.765 63.6919 109.068 59.4875 113.75 58.564L120.013 57.3286C125.226 56.3005 130.293 59.675 131.351 64.8795L139.053 102.744C139.332 104.117 140.672 105.004 142.046 104.726C142.847 104.564 143.521 104.026 143.855 103.281C144.293 102.307 146.111 83.8639 149.308 47.9512C149.767 42.797 154.213 38.9248 159.385 39.1743L168.282 39.6034C173.555 39.8578 177.649 44.297 177.473 49.5696L175.733 101.747C175.694 102.901 176.413 103.946 177.506 104.324C178.524 104.676 179.635 104.144 179.997 103.13L192.344 68.5853C194.014 63.9149 198.955 61.2724 203.772 62.4745L210.352 64.1186C215.526 65.4099 218.676 70.6472 217.388 75.8173L201.539 139.455C201.282 141.068 201.094 142.511 201.023 143.531C200.862 145.87 209.876 148.548 210.711 148.445C217.676 147.591 230.866 140.974 235.672 143.822C240.414 146.632 245.272 161.704 243.059 163.857C240.847 166.009 234.166 172.079 215.121 181.302C204.234 186.574 194.67 191.06 186.429 194.762C175.61 312.851 171.98 384.015 175.539 408.253C181.442 448.465 267.499 554.179 285.831 581.653C298.052 599.969 296.537 614.413 281.288 624.983C201.699 538.23 153.649 476.2 137.139 438.894C127.476 419.001 121.763 401.898 120 387.585L128.867 401.966C125.169 363.859 123.164 295.327 122.85 196.369Z" fill="#9060EB"/>
<g filter="url(#filter0_d)">
<rect x="542.55" y="70" width="276" height="45" rx="22.5" fill="white"/>
<path d="M583.344 91.711C583.344 86.743 580.023 83.152 575.217 83.152C570.438 83.152 567.144 86.743 567.144 91.711C567.144 96.652 570.438 100.27 575.217 100.27C580.023 100.27 583.344 96.652 583.344 91.711ZM578.97 91.711C578.97 94.573 577.458 96.463 575.217 96.463C572.976 96.463 571.518 94.573 571.518 91.711C571.518 88.849 572.976 86.959 575.217 86.959C577.458 86.959 578.97 88.849 578.97 91.711ZM588.705 100H592.512L597.156 87.85H592.998L590.73 94.816L588.408 87.85H584.088L588.705 100ZM601.409 94.897H608.888V93.655C608.888 90.037 606.971 87.58 603.191 87.58C599.843 87.58 597.305 90.199 597.305 94.006C597.305 97.921 599.951 100.27 603.839 100.27C605.594 100.27 607.079 99.892 608.024 99.19V95.977C606.809 96.706 605.81 96.949 604.514 96.949C602.948 96.949 601.76 96.355 601.409 94.897ZM603.353 90.793C604.379 90.793 605 91.495 605.108 92.521H601.463C601.76 91.414 602.435 90.793 603.353 90.793ZM618.737 91.873V87.796C618.548 87.688 618.116 87.58 617.576 87.58C616.361 87.58 615.416 88.12 614.822 88.93V87.85H610.583V100H614.822V92.872C615.038 92.008 615.821 91.495 616.982 91.495C617.657 91.495 618.224 91.603 618.737 91.873ZM626.039 83.422V87.148H631.736L628.982 92.224V92.305C631.277 92.17 633.41 92.872 633.41 94.654C633.41 96.031 632.303 96.733 630.602 96.733C628.955 96.733 627.308 96.058 625.931 94.897V98.866C627.146 99.676 628.712 100.27 631.088 100.27C634.544 100.27 637.46 98.191 637.46 94.627C637.46 92.44 636.164 90.739 634.004 89.956L637.46 83.503V83.422H626.039ZM641.092 99.73L639.067 102.835H641.74L643.225 100.594C643.792 99.73 644.251 98.758 644.251 97.786C644.251 96.085 643.09 95.167 641.767 95.167C640.336 95.167 639.256 96.139 639.256 97.516C639.256 98.758 640.12 99.541 641.092 99.73ZM651.775 100.27C655.852 100.27 658.255 96.76 658.255 91.711C658.255 86.662 655.852 83.152 651.775 83.152C647.698 83.152 645.295 86.662 645.295 91.711C645.295 96.76 647.698 100.27 651.775 100.27ZM651.775 86.959C653.503 86.959 654.043 89.146 654.043 91.711C654.043 94.276 653.503 96.463 651.775 96.463C650.02 96.463 649.507 94.276 649.507 91.711C649.507 89.146 650.02 86.959 651.775 86.959ZM665.802 100.27C669.879 100.27 672.282 96.76 672.282 91.711C672.282 86.662 669.879 83.152 665.802 83.152C661.725 83.152 659.322 86.662 659.322 91.711C659.322 96.76 661.725 100.27 665.802 100.27ZM665.802 86.959C667.53 86.959 668.07 89.146 668.07 91.711C668.07 94.276 667.53 96.463 665.802 96.463C664.047 96.463 663.534 94.276 663.534 91.711C663.534 89.146 664.047 86.959 665.802 86.959ZM679.83 100.27C683.907 100.27 686.31 96.76 686.31 91.711C686.31 86.662 683.907 83.152 679.83 83.152C675.753 83.152 673.35 86.662 673.35 91.711C673.35 96.76 675.753 100.27 679.83 100.27ZM679.83 86.959C681.558 86.959 682.098 89.146 682.098 91.711C682.098 94.276 681.558 96.463 679.83 96.463C678.075 96.463 677.562 94.276 677.562 91.711C677.562 89.146 678.075 86.959 679.83 86.959ZM704.095 89.038C703.366 88.174 702.286 87.58 700.747 87.58C699.397 87.58 698.236 88.093 697.615 88.849V87.85H693.376V100H697.615V92.602C697.804 91.765 698.452 91.306 699.181 91.306C700.126 91.306 700.558 92.035 700.558 93.061V100H704.77V92.602C704.986 91.765 705.607 91.306 706.336 91.306C707.281 91.306 707.713 92.035 707.713 93.061V100H711.952V92.035C711.952 89.308 710.386 87.58 707.848 87.58C706.066 87.58 704.824 88.282 704.095 89.038ZM717.583 94.897H725.062V93.655C725.062 90.037 723.145 87.58 719.365 87.58C716.017 87.58 713.479 90.199 713.479 94.006C713.479 97.921 716.125 100.27 720.013 100.27C721.768 100.27 723.253 99.892 724.198 99.19V95.977C722.983 96.706 721.984 96.949 720.688 96.949C719.122 96.949 717.934 96.355 717.583 94.897ZM719.527 90.793C720.553 90.793 721.174 91.495 721.282 92.521H717.637C717.934 91.414 718.609 90.793 719.527 90.793ZM737.476 89.038C736.747 88.174 735.667 87.58 734.128 87.58C732.778 87.58 731.617 88.093 730.996 88.849V87.85H726.757V100H730.996V92.602C731.185 91.765 731.833 91.306 732.562 91.306C733.507 91.306 733.939 92.035 733.939 93.061V100H738.151V92.602C738.367 91.765 738.988 91.306 739.717 91.306C740.662 91.306 741.094 92.035 741.094 93.061V100H745.333V92.035C745.333 89.308 743.767 87.58 741.229 87.58C739.447 87.58 738.205 88.282 737.476 89.038ZM751.747 100V99.028C752.314 99.676 753.502 100.27 754.744 100.27C758.254 100.27 760.171 97.435 760.171 93.925C760.171 90.415 758.254 87.58 754.744 87.58C753.502 87.58 752.314 88.174 751.747 88.822V82.45H747.508V100H751.747ZM751.747 95.518V92.305C752.071 91.657 752.8 91.171 753.61 91.171C755.068 91.171 755.932 92.359 755.932 93.925C755.932 95.491 755.068 96.652 753.61 96.652C752.773 96.652 752.071 96.193 751.747 95.518ZM765.413 94.897H772.892V93.655C772.892 90.037 770.975 87.58 767.195 87.58C763.847 87.58 761.309 90.199 761.309 94.006C761.309 97.921 763.955 100.27 767.843 100.27C769.598 100.27 771.083 99.892 772.028 99.19V95.977C770.813 96.706 769.814 96.949 768.518 96.949C766.952 96.949 765.764 96.355 765.413 94.897ZM767.357 90.793C768.383 90.793 769.004 91.495 769.112 92.521H765.467C765.764 91.414 766.439 90.793 767.357 90.793ZM782.741 91.873V87.796C782.552 87.688 782.12 87.58 781.58 87.58C780.365 87.58 779.42 88.12 778.826 88.93V87.85H774.587V100H778.826V92.872C779.042 92.008 779.825 91.495 780.986 91.495C781.661 91.495 782.228 91.603 782.741 91.873ZM783.964 95.545V99.109C785.098 99.865 786.88 100.27 788.581 100.27C791.578 100.27 793.819 99.001 793.819 96.409C793.819 94.357 792.766 93.277 790.12 92.575L789.013 92.251C788.419 92.089 788.068 91.927 788.068 91.468C788.068 90.982 788.554 90.739 789.283 90.739C790.66 90.739 791.956 91.306 793.117 92.143V88.66C791.929 87.931 790.606 87.58 788.878 87.58C786.016 87.58 783.91 89.011 783.91 91.549C783.91 93.736 785.341 94.789 787.582 95.275L788.527 95.518C789.256 95.68 789.634 95.869 789.634 96.355C789.634 96.895 789.094 97.084 788.257 97.084C787.015 97.084 785.125 96.49 783.964 95.545Z" fill="#444444"/>
</g>
<g filter="url(#filter1_d)">
<rect x="24.5498" y="424" width="275" height="45" rx="22.5" fill="white"/>
<path d="M55.1918 443.119C54.6788 443.119 54.1118 443.173 53.7878 443.254V441.148H60.4838V437.422H50.4128V447.223C51.4658 446.818 52.9508 446.575 54.2738 446.575C56.0558 446.575 57.4058 447.277 57.4058 448.708C57.4058 450.112 56.0018 450.76 54.4358 450.76C52.7078 450.76 51.0068 450.004 49.8458 448.978V452.893C51.0338 453.676 52.6538 454.27 54.7868 454.27C58.5938 454.27 61.4288 452.083 61.4288 448.654C61.4288 445.198 58.7288 443.119 55.1918 443.119ZM71.1631 439.798H68.0311V444.361H63.4681V447.493H68.0311V452.029H71.1631V447.493H75.6991V444.361H71.1631V439.798ZM93.8358 437.422L90.3528 443.902L86.8698 437.422H82.1718L88.0578 448.114V454H92.4048V448.114L98.3988 437.422H93.8358ZM100.891 448.897H108.37V447.655C108.37 444.037 106.453 441.58 102.673 441.58C99.3248 441.58 96.7868 444.199 96.7868 448.006C96.7868 451.921 99.4328 454.27 103.321 454.27C105.076 454.27 106.561 453.892 107.506 453.19V449.977C106.291 450.706 105.292 450.949 103.996 450.949C102.43 450.949 101.242 450.355 100.891 448.897ZM102.835 444.793C103.861 444.793 104.482 445.495 104.59 446.521H100.945C101.242 445.414 101.917 444.793 102.835 444.793ZM116.734 446.683V447.115C116.248 446.764 115.114 446.44 114.088 446.44C111.469 446.44 109.417 447.952 109.417 450.301C109.417 452.866 111.469 454.216 113.872 454.216C115.168 454.216 116.329 453.784 116.734 453.379V454H120.811V446.494C120.811 443.281 118.759 441.58 115.168 441.58C113.44 441.58 111.82 441.985 110.821 442.525V445.927C111.793 445.36 112.981 445.063 114.142 445.063C115.87 445.063 116.734 445.738 116.734 446.683ZM116.734 449.896V450.598C116.464 451.084 115.789 451.408 115.033 451.408C114.196 451.408 113.359 451.057 113.359 450.22C113.359 449.41 114.196 449.059 115.033 449.059C115.789 449.059 116.464 449.383 116.734 449.896ZM131.139 445.873V441.796C130.95 441.688 130.518 441.58 129.978 441.58C128.763 441.58 127.818 442.12 127.224 442.93V441.85H122.985V454H127.224V446.872C127.44 446.008 128.223 445.495 129.384 445.495C130.059 445.495 130.626 445.603 131.139 445.873ZM132.361 449.545V453.109C133.495 453.865 135.277 454.27 136.978 454.27C139.975 454.27 142.216 453.001 142.216 450.409C142.216 448.357 141.163 447.277 138.517 446.575L137.41 446.251C136.816 446.089 136.465 445.927 136.465 445.468C136.465 444.982 136.951 444.739 137.68 444.739C139.057 444.739 140.353 445.306 141.514 446.143V442.66C140.326 441.931 139.003 441.58 137.275 441.58C134.413 441.58 132.307 443.011 132.307 445.549C132.307 447.736 133.738 448.789 135.979 449.275L136.924 449.518C137.653 449.68 138.031 449.869 138.031 450.355C138.031 450.895 137.491 451.084 136.654 451.084C135.412 451.084 133.522 450.49 132.361 449.545ZM148.759 445.711C148.759 450.868 152.215 454.27 157.264 454.27C159.019 454.27 160.423 453.838 161.476 453.136V448.924C160.288 449.842 158.992 450.247 157.615 450.247C154.861 450.247 153.106 448.546 153.106 445.711C153.106 442.849 154.861 441.148 157.615 441.148C158.992 441.148 160.288 441.58 161.476 442.498V438.286C160.423 437.584 159.019 437.152 157.264 437.152C152.215 437.152 148.759 440.554 148.759 445.711ZM175.362 447.925C175.362 444.172 172.851 441.58 169.152 441.58C165.48 441.58 162.942 444.172 162.942 447.925C162.942 451.678 165.48 454.27 169.152 454.27C172.851 454.27 175.362 451.678 175.362 447.925ZM171.204 447.925C171.204 449.599 170.475 450.76 169.152 450.76C167.856 450.76 167.127 449.599 167.127 447.925C167.127 446.251 167.856 445.063 169.152 445.063C170.475 445.063 171.204 446.251 171.204 447.925ZM187.73 443.038C187.001 442.174 185.921 441.58 184.382 441.58C183.032 441.58 181.871 442.093 181.25 442.849V441.85H177.011V454H181.25V446.602C181.439 445.765 182.087 445.306 182.816 445.306C183.761 445.306 184.193 446.035 184.193 447.061V454H188.405V446.602C188.621 445.765 189.242 445.306 189.971 445.306C190.916 445.306 191.348 446.035 191.348 447.061V454H195.587V446.035C195.587 443.308 194.021 441.58 191.483 441.58C189.701 441.58 188.459 442.282 187.73 443.038ZM208.481 443.038C207.752 442.174 206.672 441.58 205.133 441.58C203.783 441.58 202.622 442.093 202.001 442.849V441.85H197.762V454H202.001V446.602C202.19 445.765 202.838 445.306 203.567 445.306C204.512 445.306 204.944 446.035 204.944 447.061V454H209.156V446.602C209.372 445.765 209.993 445.306 210.722 445.306C211.667 445.306 212.099 446.035 212.099 447.061V454H216.338V446.035C216.338 443.308 214.772 441.58 212.234 441.58C210.452 441.58 209.21 442.282 208.481 443.038ZM230.204 454V441.85H225.965V449.221C225.749 450.058 225.02 450.571 224.237 450.571C223.157 450.571 222.671 449.842 222.671 448.816V441.85H218.459V449.815C218.459 452.515 220.052 454.27 222.725 454.27C224.102 454.27 225.317 453.703 225.965 452.947V454H230.204ZM232.461 441.85V454H236.7V446.656C236.916 445.819 237.618 445.333 238.455 445.333C239.535 445.333 240.048 446.062 240.048 447.061V454H244.26V446.035C244.26 443.335 242.667 441.58 239.967 441.58C238.563 441.58 237.375 442.147 236.7 442.903V441.85H232.461ZM250.998 438.556C250.998 437.152 249.891 436.261 248.595 436.261C247.299 436.261 246.192 437.152 246.192 438.556C246.192 439.933 247.299 440.824 248.595 440.824C249.891 440.824 250.998 439.933 250.998 438.556ZM250.701 454V441.85H246.462V454H250.701ZM258.617 454V445.144H260.993V441.85H258.617V438.502H254.405V441.85H252.299V445.144H254.405V454H258.617ZM264.355 458.293H268.54L274.804 441.85H270.592L268.324 448.762L266.002 441.85H261.601L266.137 453.703L264.355 458.293Z" fill="#444444"/>
</g>
<g filter="url(#filter2_d)">
<rect x="410.55" y="563" width="195" height="45" rx="22.5" fill="white"/>
<path d="M435.873 576.422V580.148H441.57L438.816 585.224V585.305C441.111 585.17 443.244 585.872 443.244 587.654C443.244 589.031 442.137 589.733 440.436 589.733C438.789 589.733 437.142 589.058 435.765 587.897V591.866C436.98 592.676 438.546 593.27 440.922 593.27C444.378 593.27 447.294 591.191 447.294 587.627C447.294 585.44 445.998 583.739 443.838 582.956L447.294 576.503V576.422H435.873ZM455.597 593.27C459.674 593.27 462.077 589.76 462.077 584.711C462.077 579.662 459.674 576.152 455.597 576.152C451.52 576.152 449.117 579.662 449.117 584.711C449.117 589.76 451.52 593.27 455.597 593.27ZM455.597 579.959C457.325 579.959 457.865 582.146 457.865 584.711C457.865 587.276 457.325 589.463 455.597 589.463C453.842 589.463 453.329 587.276 453.329 584.711C453.329 582.146 453.842 579.959 455.597 579.959ZM471.19 578.798H468.058V583.361H463.495V586.493H468.058V591.029H471.19V586.493H475.726V583.361H471.19V578.798ZM482.631 584.711C482.631 589.868 486.087 593.27 491.136 593.27C492.891 593.27 494.295 592.838 495.348 592.136V587.924C494.16 588.842 492.864 589.247 491.487 589.247C488.733 589.247 486.978 587.546 486.978 584.711C486.978 581.849 488.733 580.148 491.487 580.148C492.864 580.148 494.16 580.58 495.348 581.498V577.286C494.295 576.584 492.891 576.152 491.136 576.152C486.087 576.152 482.631 579.554 482.631 584.711ZM497.462 575.45V593H501.701V585.656C501.917 584.819 502.619 584.333 503.456 584.333C504.536 584.333 505.049 585.062 505.049 586.061V593H509.261V585.035C509.261 582.335 507.668 580.58 504.968 580.58C503.564 580.58 502.376 581.147 501.701 581.903V575.45H497.462ZM518.132 585.683V586.115C517.646 585.764 516.512 585.44 515.486 585.44C512.867 585.44 510.815 586.952 510.815 589.301C510.815 591.866 512.867 593.216 515.27 593.216C516.566 593.216 517.727 592.784 518.132 592.379V593H522.209V585.494C522.209 582.281 520.157 580.58 516.566 580.58C514.838 580.58 513.218 580.985 512.219 581.525V584.927C513.191 584.36 514.379 584.063 515.54 584.063C517.268 584.063 518.132 584.738 518.132 585.683ZM518.132 588.896V589.598C517.862 590.084 517.187 590.408 516.431 590.408C515.594 590.408 514.757 590.057 514.757 589.22C514.757 588.41 515.594 588.059 516.431 588.059C517.187 588.059 517.862 588.383 518.132 588.896ZM524.383 580.85V593H528.622V585.656C528.838 584.819 529.54 584.333 530.377 584.333C531.457 584.333 531.97 585.062 531.97 586.061V593H536.182V585.035C536.182 582.335 534.589 580.58 531.889 580.58C530.485 580.58 529.297 581.147 528.622 581.903V580.85H524.383ZM538.384 580.85V593H542.623V585.656C542.839 584.819 543.541 584.333 544.378 584.333C545.458 584.333 545.971 585.062 545.971 586.061V593H550.183V585.035C550.183 582.335 548.59 580.58 545.89 580.58C544.486 580.58 543.298 581.147 542.623 581.903V580.85H538.384ZM555.841 587.897H563.32V586.655C563.32 583.037 561.403 580.58 557.623 580.58C554.275 580.58 551.737 583.199 551.737 587.006C551.737 590.921 554.383 593.27 558.271 593.27C560.026 593.27 561.511 592.892 562.456 592.19V588.977C561.241 589.706 560.242 589.949 558.946 589.949C557.38 589.949 556.192 589.355 555.841 587.897ZM557.785 583.793C558.811 583.793 559.432 584.495 559.54 585.521H555.895C556.192 584.414 556.867 583.793 557.785 583.793ZM569.254 593V575.45H565.015V593H569.254ZM571.122 588.545V592.109C572.256 592.865 574.038 593.27 575.739 593.27C578.736 593.27 580.977 592.001 580.977 589.409C580.977 587.357 579.924 586.277 577.278 585.575L576.171 585.251C575.577 585.089 575.226 584.927 575.226 584.468C575.226 583.982 575.712 583.739 576.441 583.739C577.818 583.739 579.114 584.306 580.275 585.143V581.66C579.087 580.931 577.764 580.58 576.036 580.58C573.174 580.58 571.068 582.011 571.068 584.549C571.068 586.736 572.499 587.789 574.74 588.275L575.685 588.518C576.414 588.68 576.792 588.869 576.792 589.355C576.792 589.895 576.252 590.084 575.415 590.084C574.173 590.084 572.283 589.49 571.122 588.545Z" fill="#444444"/>
</g>
<defs>
<filter id="filter0_d" x="530.55" y="64" width="300" height="69" filterUnits="userSpaceOnUse" color-interpolation-filters="sRGB">
<feFlood flood-opacity="0" result="BackgroundImageFix"/>
<feColorMatrix in="SourceAlpha" type="matrix" values="0 0 0 0 0 0 0 0 0 0 0 0 0 0 0 0 0 0 127 0"/>
<feOffset dy="6"/>
<feGaussianBlur stdDeviation="6"/>
<feColorMatrix type="matrix" values="0 0 0 0 0 0 0 0 0 0 0 0 0 0 0 0 0 0 0.12 0"/>
<feBlend mode="normal" in2="BackgroundImageFix" result="effect1_dropShadow"/>
<feBlend mode="normal" in="SourceGraphic" in2="effect1_dropShadow" result="shape"/>
</filter>
<filter id="filter1_d" x="12.5498" y="418" width="299" height="69" filterUnits="userSpaceOnUse" color-interpolation-filters="sRGB">
<feFlood flood-opacity="0" result="BackgroundImageFix"/>
<feColorMatrix in="SourceAlpha" type="matrix" values="0 0 0 0 0 0 0 0 0 0 0 0 0 0 0 0 0 0 127 0"/>
<feOffset dy="6"/>
<feGaussianBlur stdDeviation="6"/>
<feColorMatrix type="matrix" values="0 0 0 0 0 0 0 0 0 0 0 0 0 0 0 0 0 0 0.12 0"/>
<feBlend mode="normal" in2="BackgroundImageFix" result="effect1_dropShadow"/>
<feBlend mode="normal" in="SourceGraphic" in2="effect1_dropShadow" result="shape"/>
</filter>
<filter id="filter2_d" x="398.55" y="557" width="219" height="69" filterUnits="userSpaceOnUse" color-interpolation-filters="sRGB">
<feFlood flood-opacity="0" result="BackgroundImageFix"/>
<feColorMatrix in="SourceAlpha" type="matrix" values="0 0 0 0 0 0 0 0 0 0 0 0 0 0 0 0 0 0 127 0"/>
<feOffset dy="6"/>
<feGaussianBlur stdDeviation="6"/>
<feColorMatrix type="matrix" values="0 0 0 0 0 0 0 0 0 0 0 0 0 0 0 0 0 0 0.12 0"/>
<feBlend mode="normal" in2="BackgroundImageFix" result="effect1_dropShadow"/>
<feBlend mode="normal" in="SourceGraphic" in2="effect1_dropShadow" result="shape"/>
</filter>
</defs>
</svg>
